<svg width="46" height="46" viewBox="0 0 46 46" fill="none" xmlns="http://www.w3.org/2000/svg">
<path d="M36.3333 3H9.66669C5.98478 3 3 5.98478 3 9.66669V36.3333C3 40.0152 5.98478 43 9.66669 43H36.3333C40.0152 43 43 40.0152 43 36.3333V9.66669C43 5.98478 40.0152 3 36.3333 3Z" fill="url(#paint0_linear_2545_115)" fill-opacity="0.2"/>
<rect x="1" y="1" width="44" height="44" rx="6.6" fill="url(#paint1_linear_2545_115)"/>
<rect x="0.5" y="0.5" width="45" height="45" rx="7.1" stroke="white" stroke-opacity="0.4"/>
<path fill-rule="evenodd" clip-rule="evenodd" d="M17.6975 11.035L28.4139 11.035C28.8912 11.035 29.2781 11.4219 29.2781 11.8992L29.2781 17.9488C29.2781 18.4261 28.8912 18.8131 28.4139 18.8131L17.6975 18.8131C17.2202 18.8131 16.8332 18.4261 16.8332 17.9488L16.8332 11.8992C16.8332 11.4219 17.2202 11.035 17.6975 11.035Z" stroke="#133B84" stroke-width="1.5"/>
<path fill-rule="evenodd" clip-rule="evenodd" d="M7.82638 29.7796L18.5428 29.7796C19.0201 29.7796 19.4071 30.1666 19.4071 30.6439L19.4071 34.1008C19.4071 34.5781 19.0201 34.965 18.5428 34.965L7.82638 34.965C7.34908 34.965 6.96215 34.5781 6.96215 34.1008L6.96215 30.6439C6.96215 30.1666 7.34908 29.7796 7.82638 29.7796Z" stroke="#133B84" stroke-width="1.5"/>
<path fill-rule="evenodd" clip-rule="evenodd" d="M27.4572 29.7796L38.1737 29.7796C38.651 29.7796 39.0379 30.1666 39.0379 30.6439L39.0379 34.1008C39.0379 34.5781 38.651 34.965 38.1737 34.965L27.4572 34.965C26.9799 34.965 26.593 34.5781 26.593 34.1008L26.593 30.6439C26.593 30.1666 26.9799 29.7796 27.4572 29.7796Z" stroke="#133B84" stroke-width="1.5"/>
<path d="M23.124 18.7839V24.1727" stroke="#133B84" stroke-width="1.5"/>
<path d="M32.8947 30.358V25.9011C32.8947 24.9465 32.1209 24.1726 31.1663 24.1726H14.8349C13.8803 24.1726 13.1064 24.9465 13.1064 25.9011V30.358" stroke="#133B84" stroke-width="1.5"/>
<path d="M36.3333 3H9.66669C5.98478 3 3 5.98478 3 9.66669V36.3333C3 40.0152 5.98478 43 9.66669 43H36.3333C40.0152 43 43 40.0152 43 36.3333V9.66669C43 5.98478 40.0152 3 36.3333 3Z" fill="url(#paint2_linear_2545_115)" fill-opacity="0.2"/>
<rect x="1" y="1" width="44" height="44" rx="6.6" fill="url(#paint3_linear_2545_115)"/>
<rect x="0.5" y="0.5" width="45" height="45" rx="7.1" stroke="white" stroke-opacity="0.4"/>
<path fill-rule="evenodd" clip-rule="evenodd" d="M17.6975 11.035L28.4139 11.035C28.8912 11.035 29.2781 11.4219 29.2781 11.8992L29.2781 17.9488C29.2781 18.4261 28.8912 18.8131 28.4139 18.8131L17.6975 18.8131C17.2202 18.8131 16.8332 18.4261 16.8332 17.9488L16.8332 11.8992C16.8332 11.4219 17.2202 11.035 17.6975 11.035Z" stroke="#133B84" stroke-width="1.5"/>
<path fill-rule="evenodd" clip-rule="evenodd" d="M7.82638 29.7796L18.5428 29.7796C19.0201 29.7796 19.4071 30.1666 19.4071 30.6439L19.4071 34.1008C19.4071 34.5781 19.0201 34.965 18.5428 34.965L7.82638 34.965C7.34908 34.965 6.96215 34.5781 6.96215 34.1008L6.96215 30.6439C6.96215 30.1666 7.34908 29.7796 7.82638 29.7796Z" stroke="#133B84" stroke-width="1.5"/>
<path fill-rule="evenodd" clip-rule="evenodd" d="M27.4572 29.7796L38.1737 29.7796C38.651 29.7796 39.0379 30.1666 39.0379 30.6439L39.0379 34.1008C39.0379 34.5781 38.651 34.965 38.1737 34.965L27.4572 34.965C26.9799 34.965 26.593 34.5781 26.593 34.1008L26.593 30.6439C26.593 30.1666 26.9799 29.7796 27.4572 29.7796Z" stroke="#133B84" stroke-width="1.5"/>
<path d="M23.124 18.7839V24.1727" stroke="#133B84" stroke-width="1.5"/>
<path d="M32.8947 30.358V25.9011C32.8947 24.9465 32.1209 24.1726 31.1663 24.1726H14.8349C13.8803 24.1726 13.1064 24.9465 13.1064 25.9011V30.358" stroke="#133B84" stroke-width="1.5"/>
<path d="M36.3333 3H9.66669C5.98478 3 3 5.98478 3 9.66669V36.3333C3 40.0152 5.98478 43 9.66669 43H36.3333C40.0152 43 43 40.0152 43 36.3333V9.66669C43 5.98478 40.0152 3 36.3333 3Z" fill="url(#paint4_linear_2545_115)" fill-opacity="0.2"/>
<rect x="1" y="1" width="44" height="44" rx="6" fill="url(#paint5_linear_2545_115)"/>
<rect x="0.5" y="0.5" width="45" height="45" rx="6.5" stroke="white" stroke-opacity="0.4"/>
<rect x="10.1387" y="11.5278" width="25.7222" height="25.7222" rx="4.25" stroke="#133B84" stroke-width="1.5"/>
<path d="M18.5879 27.2081L21.3743 30.0588L27.4114 23.8823" stroke="#133B84" stroke-width="1.5" stroke-linecap="round" stroke-linejoin="round"/>
<path d="M9.66602 17.4443H36.3327" stroke="#133B84" stroke-width="1.5"/>
<path d="M16.6113 8.40845V13.7026" stroke="#133B84" stroke-width="1.5" stroke-linecap="round"/>
<path d="M28.834 8.40845V13.7026" stroke="#133B84" stroke-width="1.5" stroke-linecap="round"/>
<defs>
<linearGradient id="paint0_linear_2545_115" x1="43" y1="6.32943" x2="3" y2="39.6706" gradientUnits="userSpaceOnUse">
<stop stop-color="#2F77FB"/>
<stop offset="1" stop-color="#A6C5FF"/>
</linearGradient>
<linearGradient id="paint1_linear_2545_115" x1="6.37769" y1="1" x2="39.6223" y2="45" gradientUnits="userSpaceOnUse">
<stop stop-color="#ECF3FF"/>
<stop offset="1" stop-color="#76A7FF"/>
</linearGradient>
<linearGradient id="paint2_linear_2545_115" x1="43" y1="6.32943" x2="3" y2="39.6706" gradientUnits="userSpaceOnUse">
<stop stop-color="#2F77FB"/>
<stop offset="1" stop-color="#A6C5FF"/>
</linearGradient>
<linearGradient id="paint3_linear_2545_115" x1="6.37769" y1="1" x2="39.6223" y2="45" gradientUnits="userSpaceOnUse">
<stop stop-color="#ECF3FF"/>
<stop offset="1" stop-color="#76A7FF"/>
</linearGradient>
<linearGradient id="paint4_linear_2545_115" x1="43" y1="6.32943" x2="3" y2="39.6706" gradientUnits="userSpaceOnUse">
<stop stop-color="#2F77FB"/>
<stop offset="1" stop-color="#A6C5FF"/>
</linearGradient>
<linearGradient id="paint5_linear_2545_115" x1="6.37769" y1="1" x2="39.6223" y2="45" gradientUnits="userSpaceOnUse">
<stop stop-color="#ECF3FF"/>
<stop offset="1" stop-color="#76A7FF"/>
</linearGradient>
</defs>
</svg>
